<svg width="113" height="95" viewBox="0 0 113 95" fill="none" xmlns="http://www.w3.org/2000/svg">
<g id="&#235;&#160;&#136;&#236;&#157;&#180;&#236;&#150;&#180;_1" clip-path="url(#clip0_736_14637)">
<path id="Vector" d="M29.403 74.7769C29.403 74.7769 33.4234 82.1866 28.3252 84.2036C23.2271 86.2205 22.1061 84.4301 18.7325 82.8662C15.3589 81.3022 7.95419 89.7474 8.97813 90.8044C10.0021 91.8614 11.3817 91.8829 13.117 91.3545C14.8523 90.826 24.7791 98.6995 35.8593 90.2759C43.5981 84.3546 42.4771 76.8046 39.8688 68.7046" stroke="black" stroke-miterlimit="10"/>
<path id="Vector_2" d="M54.9696 3.97995L62.9024 14.0753C63.9421 15.4027 65.2892 16.4568 66.8272 17.1464C68.3652 17.8361 70.0479 18.1406 71.7299 18.0336L84.5453 17.2247C86.4809 17.1038 88.4118 17.5268 90.1199 18.446C91.828 19.3653 93.2452 20.7441 94.2115 22.4267C95.1778 24.1094 95.6548 26.0289 95.5885 27.9685C95.5221 29.9081 94.9152 31.7905 93.8362 33.4032L86.6794 44.081C85.7352 45.4776 85.1438 47.0827 84.956 48.7585C84.7683 50.4342 84.9898 52.1306 85.6016 53.7018L90.3333 65.6523C91.0496 67.4567 91.2466 69.4259 90.9021 71.3367C90.5577 73.2474 89.6854 75.0235 88.3841 76.4637C87.0829 77.904 85.4046 78.9508 83.5393 79.4857C81.6741 80.0206 79.6965 80.0222 77.8304 79.4903L65.4784 75.9742C63.8573 75.5168 62.1496 75.4594 60.5015 75.8069C58.8534 76.1544 57.314 76.8965 56.0151 77.9695L46.1206 86.1666C44.6255 87.4029 42.8148 88.1962 40.893 88.457C38.9711 88.7179 37.0147 88.4358 35.2446 87.6427C33.4745 86.8496 31.9612 85.577 30.8757 83.9687C29.7902 82.3604 29.1757 80.4805 29.1016 78.5411L28.6166 65.6954C28.5535 64.0106 28.082 62.3665 27.2427 60.9047C26.4034 59.4428 25.2214 58.2072 23.7987 57.3042L12.9556 50.4229C11.3191 49.3824 10.0059 47.9047 9.16414 46.1568C8.32237 44.4089 7.98558 42.4604 8.19182 40.5311C8.39807 38.6019 9.13914 36.7687 10.3313 35.2386C11.5235 33.7084 13.1194 32.5423 14.9389 31.8716L26.9998 27.4387C28.5773 26.8561 29.9898 25.899 31.1163 24.6497C32.2427 23.4004 33.0493 21.8962 33.4668 20.2663L36.7003 7.80884C37.1824 5.92531 38.1821 4.21458 39.5861 2.87051C40.9901 1.52644 42.7423 0.602751 44.644 0.20418C46.5458 -0.194392 48.521 -0.0519128 50.346 0.615422C52.171 1.28276 53.7727 2.44831 54.9696 3.97995Z" fill="#58DB67"/>
<path id="Vector_3" d="M20.0583 46.7881C20.0583 46.7881 2.72675 59.5259 1.05611 62.6106C-0.61453 65.6953 2.13392 65.5983 4.2357 64.2609C6.33747 62.9234 3.95547 65.1129 4.7854 65.3394C5.61534 65.5659 6.34826 65.1345 7.64165 63.6245C8.93505 62.1145 18.226 56.5922 26.1373 53.6154" stroke="black" stroke-miterlimit="10"/>
<path id="Vector_4" d="M75.6211 77.0849C75.6211 77.0849 90.0856 86.1233 93.5455 93.9429C94.4401 95.9598 100.713 91.6779 103.548 87.7951C106.382 83.9122 100.982 85.638 99.8615 86.1125C98.7406 86.5871 98.7837 86.0263 95.7442 81.2806C90.8724 73.7306 86.9922 70.8832 83.0905 68.9634" stroke="black" stroke-miterlimit="10"/>
<path id="Vector_5" d="M83.4678 32.2167C83.4678 32.2167 86.7013 30.3616 89.5791 28.981C98.8161 24.6129 99.4305 24.1059 106.242 22.391C108.678 21.787 111.416 21.7439 112.343 22.5096C113.27 23.2754 108.409 24.4295 108.409 24.9687C108.409 25.508 109.002 29.887 107.331 29.887C101.338 29.887 93.3192 35.2798 84.9983 41.6218" stroke="black" stroke-miterlimit="10"/>
<path id="Vector_6" d="M56.5097 25.2887C56.2446 24.6185 55.4868 24.2904 54.8171 24.5557C54.1474 24.821 53.8194 25.5794 54.0846 26.2495L54.6401 27.6535C54.9052 28.3236 55.663 28.6518 56.3327 28.3864C57.0024 28.1211 57.3304 27.3628 57.0652 26.6926L56.5097 25.2887Z" fill="black"/>
<path id="Vector_7" d="M62.959 23.8363C62.6938 23.1662 61.936 22.838 61.2663 23.1033C60.5966 23.3686 60.2687 24.127 60.5338 24.7972L61.0893 26.2011C61.3544 26.8712 62.1123 27.1994 62.782 26.9341C63.4517 26.6688 63.7796 25.9104 63.5145 25.2403L62.959 23.8363Z" fill="black"/>
<path id="Vector_8" d="M66.4376 28.6897C66.4376 28.6897 67.3861 30.6958 64.1957 32.8206C62.87 33.705 56.1874 36.1426 54.1719 33.4138" stroke="#211815" stroke-miterlimit="10"/>
</g>
<defs>
<clipPath id="clip0_736_14637">
<rect width="113" height="95" fill="white"/>
</clipPath>
</defs>
</svg>
