<svg xmlns="http://www.w3.org/2000/svg" width="21" height="19" viewBox="0 0 21 19" fill="none">
<path d="M8.95999 16.6193L8.95927 16.6186C6.35163 14.2801 4.2277 12.372 2.74984 10.5839C1.27729 8.80217 0.5 7.20184 0.5 5.48736C0.5 2.68641 2.71166 0.5 5.54853 0.5C7.15478 0.5 8.70316 1.24207 9.71061 2.40294L10.0882 2.83807L10.4659 2.40294C11.4733 1.24207 13.0217 0.5 14.6279 0.5C17.4648 0.5 19.6765 2.68641 19.6765 5.48736C19.6765 7.20184 18.8992 8.80217 17.4266 10.5839C15.9488 12.372 13.8248 14.2801 11.2172 16.6186L11.2165 16.6193L10.0882 17.6351L8.95999 16.6193Z" stroke="#949494"/>
</svg>