<svg xmlns="http://www.w3.org/2000/svg" width="20" height="20" viewBox="0 0 20 20" fill="none">
  <path d="M5.17676 9.93066H15.1768M5.17676 5.93066H11.1768" stroke="#949494" stroke-linecap="round" stroke-linejoin="round"/>
  <path d="M1.17676 18.2207V2.93066C1.17676 2.40023 1.38747 1.89152 1.76254 1.51645C2.13762 1.14138 2.64632 0.930664 3.17676 0.930664H17.1768C17.7072 0.930664 18.2159 1.14138 18.591 1.51645C18.966 1.89152 19.1768 2.40023 19.1768 2.93066V12.9307C19.1768 13.4611 18.966 13.9698 18.591 14.3449C18.2159 14.7199 17.7072 14.9307 17.1768 14.9307H6.13776C5.83799 14.9307 5.54207 14.9981 5.27187 15.1279C5.00167 15.2578 4.76411 15.4467 4.57676 15.6807L2.24576 18.5947C2.16818 18.6919 2.06232 18.7626 1.9428 18.797C1.82328 18.8314 1.69602 18.8279 1.57862 18.7868C1.46122 18.7457 1.35949 18.6692 1.28749 18.5677C1.2155 18.4663 1.1768 18.345 1.17676 18.2207Z" stroke="#949494"/>
</svg>