<svg width="16" height="18" viewBox="0 0 16 18" fill="none" xmlns="http://www.w3.org/2000/svg">
<g id="charm:menu-meatball">
<g id="Group">
<path id="Vector" d="M2.5 9.45365C2.91421 9.45365 3.25 9.09086 3.25 8.64333C3.25 8.1958 2.91421 7.83301 2.5 7.83301C2.08579 7.83301 1.75 8.1958 1.75 8.64333C1.75 9.09086 2.08579 9.45365 2.5 9.45365Z" stroke="#555555" stroke-width="1.5" stroke-linecap="round" stroke-linejoin="round"/>
<path id="Vector_2" d="M8 9.45365C8.41421 9.45365 8.75 9.09086 8.75 8.64333C8.75 8.1958 8.41421 7.83301 8 7.83301C7.58579 7.83301 7.25 8.1958 7.25 8.64333C7.25 9.09086 7.58579 9.45365 8 9.45365Z" stroke="#555555" stroke-width="1.5" stroke-linecap="round" stroke-linejoin="round"/>
<path id="Vector_3" d="M13.5 9.45365C13.9142 9.45365 14.25 9.09086 14.25 8.64333C14.25 8.1958 13.9142 7.83301 13.5 7.83301C13.0858 7.83301 12.75 8.1958 12.75 8.64333C12.75 9.09086 13.0858 9.45365 13.5 9.45365Z" stroke="#555555" stroke-width="1.5" stroke-linecap="round" stroke-linejoin="round"/>
</g>
</g>
</svg>